<?xml version="1.0" encoding="utf-8"?>
<!DOCTYPE svg PUBLIC "-//W3C//DTD SVG 1.1//EN" "http://www.w3.org/Graphics/SVG/1.1/DTD/svg11.dtd">
<svg version="1.1" xmlns="http://www.w3.org/2000/svg" xmlns:xlink="http://www.w3.org/1999/xlink" x="0px" y="0px"
	 width="100%" viewBox="0 0 150 150" enable-background="new 0 0 150 150" xml:space="preserve">
  <g>
    <path fill="#fff" d="m 82.827902,20.258506 -3.779969,15.080556 c 0,0 5.122147,-6.232156 15.281068,-6.633182 l 3.982395,-15.735811 -15.483494,7.288437 z"/>
    <path fill="#fff" d="m 31.093126,44.607672 15.197597,-7.152209 c 0,0 -17.315918,41.004075 1.222257,43.485045 C 66.9453,83.541387 67.022049,40.979283 89.740267,34.675171 115.18984,27.614102 125.57613,48.325282 125.22308,58.900574 124.58701,78.00479 113.55506,85.416024 109.79523,87.783786 89.272088,100.7038 74.196327,85.414109 74.196327,85.414109 c 0,0 4.257743,-5.779322 6.262859,-10.605033 1.771979,2.30445 5.978881,6.354005 14.303458,6.354005 18.625476,0 25.615546,-33.655194 4.957133,-35.488572 C 86.311429,44.484868 80.758515,61.719244 78.372527,66.327164 73.7694,75.217777 67.803948,94.332542 44.394981,92.349494 15.036875,89.86469 31.093126,44.607672 31.093126,44.607672 z"/>
  </g>
</svg>